<svg xmlns="http://www.w3.org/2000/svg" viewBox="0 0 814 1000" version="1.1" desc="Created with imagetracer.js version 1.2.6" height="570" width="570"><path fill="rgb(0,0,0)" stroke="rgb(0,0,0)" stroke-width="1" opacity="0" d="M 0 0 L 597 0.5 L 583.5 2 L 566.5 6 Q 539.8 14.3 517.5 27 Q 482.4 46.9 457 76.5 Q 431.6 105.6 416 144.5 L 408 169.5 L 405 183.5 L 404 199.5 L 403 200.5 L 403 220.5 L 405 230 L 424.5 231 L 425.5 230 L 434.5 230 L 445.5 228 L 476.5 218 Q 515.9 200.4 544 171.5 Q 576.8 137.8 595 89.5 L 601 70.5 L 606 45.5 Q 604.3 39.2 607 37.5 L 607 7.5 L 605 0.5 L 814 0 L 814 732.5 L 812.5 733 Q 773 715 744 686.5 Q 711 655 693 608.5 L 683 572.5 L 683 566.5 L 681 558.5 L 681 547.5 L 680 546.5 L 680 518.5 L 681 517.5 L 681 506.5 L 682 505.5 L 684 486.5 Q 689.6 461.6 699 440.5 Q 719.6 397.1 753.5 367 L 774.5 350 L 788 342 L 777 325.5 L 751.5 299 Q 716.9 267.6 666.5 252 L 647.5 247 L 642.5 247 L 623.5 243 L 614.5 243 L 613.5 242 L 572.5 242 L 571.5 243 L 563.5 243 L 562.5 244 L 551.5 245 L 522.5 252 L 440.5 283 L 424.5 287 L 412.5 288 L 411.5 287 L 402.5 287 L 388.5 284 L 316.5 256 L 296.5 250 L 269.5 245 L 238.5 244 L 237.5 245 L 226.5 245 L 225.5 246 L 212.5 247 L 193.5 251 Q 171.5 257 152.5 266 Q 108.9 286.9 78 320.5 Q 60.5 338.5 47 360.5 L 33 385.5 L 20 416.5 Q 12.1 438.6 7 463.5 L 7 468.5 L 3 487.5 L 0.5 519 L 0 0 Z "></path><path fill="rgb(0,0,0)" stroke="rgb(0,0,0)" stroke-width="1" opacity="0" d="M 0.5 566 L 1 581.5 L 2 582.5 L 2 592.5 L 3 593.5 L 5 615.5 L 17 677.5 L 35 736.5 L 53 781.5 Q 75.2 831.8 105 874.5 L 139 920.5 L 177.5 963 Q 193.2 978.3 213.5 989 L 227.5 995 L 250 999.5 L 0 1000 L 0.5 566 Z "></path><path fill="rgb(0,0,0)" stroke="rgb(0,0,0)" stroke-width="1" opacity="0" d="M 813.5 735 L 814 1000 L 272 999.5 L 280.5 999 L 298.5 995 L 323.5 986 L 355.5 972 L 385.5 963 L 402.5 961 L 403.5 960 L 435.5 959 L 436.5 960 L 455.5 961 L 478.5 966 L 546.5 993 L 570.5 998 L 592.5 999 L 593.5 998 L 605.5 998 L 622.5 994 L 647.5 983 Q 674.1 966.6 694 943.5 Q 733.2 898.2 765 845.5 L 795 786.5 L 805 762.5 L 813.5 735 Z "></path><path fill="rgb(0,0,0)" stroke="rgb(0,0,0)" stroke-width="1" opacity="0.7372549019607844" d="M 597.5 0 L 603 0.5 L 597.5 1 L 597.5 0 Z "></path><path fill="rgb(0,0,0)" stroke="rgb(0,0,0)" stroke-width="1" opacity="0.7372549019607844" d="M 589.5 1 L 593 1.5 L 589.5 2 L 589.5 1 Z "></path><path fill="rgb(0,0,0)" stroke="rgb(0,0,0)" stroke-width="1" opacity="0.7372549019607844" d="M 605.5 1 L 606 3.5 L 605 3.5 L 605.5 1 Z "></path><path fill="rgb(0,0,0)" stroke="rgb(0,0,0)" stroke-width="1" opacity="0.7372549019607844" d="M 606.5 7 L 607 11.5 L 606 11.5 L 606.5 7 Z "></path><path fill="rgb(0,0,0)" stroke="rgb(0,0,0)" stroke-width="1" opacity="0.7372549019607844" d="M 519.5 26 L 518.5 28 L 516.5 29 L 517.5 27 L 519.5 26 Z "></path><path fill="rgb(0,0,0)" stroke="rgb(0,0,0)" stroke-width="1" opacity="0.7372549019607844" d="M 512.5 30 L 511.5 32 L 512.5 30 Z "></path><path fill="rgb(0,0,0)" stroke="rgb(0,0,0)" stroke-width="1" opacity="0.7372549019607844" d="M 606.5 31 L 607 37.5 L 606 37.5 L 606.5 31 Z "></path><path fill="rgb(0,0,0)" stroke="rgb(0,0,0)" stroke-width="1" opacity="0.7372549019607844" d="M 507.5 33 L 506.5 35 L 507.5 33 Z "></path><path fill="rgb(0,0,0)" stroke="rgb(0,0,0)" stroke-width="1" opacity="0.7372549019607844" d="M 504.5 35 L 502.5 38 L 504.5 35 Z "></path><path fill="rgb(0,0,0)" stroke="rgb(0,0,0)" stroke-width="1" opacity="0.7372549019607844" d="M 500.5 38 L 499.5 40 L 500.5 38 Z "></path><path fill="rgb(0,0,0)" stroke="rgb(0,0,0)" stroke-width="1" opacity="0.7372549019607844" d="M 497.5 40 L 495.5 43 L 497.5 40 Z "></path><path fill="rgb(0,0,0)" stroke="rgb(0,0,0)" stroke-width="1" opacity="0.7372549019607844" d="M 605.5 42 L 606 45.5 L 605 45.5 L 605.5 42 Z "></path><path fill="rgb(0,0,0)" stroke="rgb(0,0,0)" stroke-width="1" opacity="0.7372549019607844" d="M 493.5 43 L 491.5 46 L 493.5 43 Z "></path><path fill="rgb(0,0,0)" stroke="rgb(0,0,0)" stroke-width="1" opacity="0.7372549019607844" d="M 489.5 46 L 487.5 49 L 489.5 46 Z "></path><path fill="rgb(0,0,0)" stroke="rgb(0,0,0)" stroke-width="1" opacity="0.7372549019607844" d="M 485.5 49 L 482.5 53 L 485.5 49 Z "></path><path fill="rgb(0,0,0)" stroke="rgb(0,0,0)" stroke-width="1" opacity="0.7372549019607844" d="M 604.5 49 L 605 51.5 L 604 51.5 L 604.5 49 Z "></path><path fill="rgb(0,0,0)" stroke="rgb(0,0,0)" stroke-width="1" opacity="0.7372549019607844" d="M 480.5 53 L 476.5 58 L 480.5 53 Z "></path><path fill="rgb(0,0,0)" stroke="rgb(0,0,0)" stroke-width="1" opacity="0.7372549019607844" d="M 603.5 55 L 604 57.5 L 603 57.5 L 603.5 55 Z "></path><path fill="rgb(0,0,0)" stroke="rgb(0,0,0)" stroke-width="1" opacity="0.7372549019607844" d="M 462.5 71 L 457.5 77 L 462.5 71 Z "></path><path fill="rgb(0,0,0)" stroke="rgb(0,0,0)" stroke-width="1" opacity="0.7372549019607844" d="M 456.5 78 L 453.5 82 L 456.5 78 Z "></path><path fill="rgb(0,0,0)" stroke="rgb(0,0,0)" stroke-width="1" opacity="0.7372549019607844" d="M 452.5 83 L 449.5 87 L 452.5 83 Z "></path><path fill="rgb(0,0,0)" stroke="rgb(0,0,0)" stroke-width="1" opacity="0.7372549019607844" d="M 447.5 89 L 446.5 91 L 447.5 89 Z "></path><path fill="rgb(0,0,0)" stroke="rgb(0,0,0)" stroke-width="1" opacity="0.7372549019607844" d="M 445.5 92 L 444.5 94 L 445.5 92 Z "></path><path fill="rgb(0,0,0)" stroke="rgb(0,0,0)" stroke-width="1" opacity="0.7372549019607844" d="M 442.5 96 L 441.5 98 L 442.5 96 Z "></path><path fill="rgb(0,0,0)" stroke="rgb(0,0,0)" stroke-width="1" opacity="0.7372549019607844" d="M 440.5 99 L 439.5 101 L 440.5 99 Z "></path><path fill="rgb(0,0,0)" stroke="rgb(0,0,0)" stroke-width="1" opacity="0.7372549019607844" d="M 438.5 102 L 437.5 104 L 438.5 102 Z "></path><path fill="rgb(0,0,0)" stroke="rgb(0,0,0)" stroke-width="1" opacity="0.7372549019607844" d="M 436.5 105 L 436 106.5 L 434.5 109 L 435 107.5 L 436.5 105 Z "></path><path fill="rgb(0,0,0)" stroke="rgb(0,0,0)" stroke-width="1" opacity="0.7372549019607844" d="M 586.5 107 L 587 108.5 L 585.5 111 L 585 109.5 L 586.5 107 Z "></path><path fill="rgb(0,0,0)" stroke="rgb(0,0,0)" stroke-width="1" opacity="0.7372549019607844" d="M 432.5 112 L 431.5 114 L 432.5 112 Z "></path><path fill="rgb(0,0,0)" stroke="rgb(0,0,0)" stroke-width="1" opacity="0.7372549019607844" d="M 428.5 119 L 428 120.5 L 425.5 125 L 426 123.5 L 428.5 119 Z "></path><path fill="rgb(0,0,0)" stroke="rgb(0,0,0)" stroke-width="1" opacity="0.7372549019607844" d="M 580.5 120 L 580 121.5 L 578.5 124 L 579 122.5 L 580.5 120 Z "></path><path fill="rgb(0,0,0)" stroke="rgb(0,0,0)" stroke-width="1" opacity="0.7372549019607844" d="M 576.5 127 L 576 128.5 L 574.5 131 L 575 129.5 L 576.5 127 Z "></path><path fill="rgb(0,0,0)" stroke="rgb(0,0,0)" stroke-width="1" opacity="0.7372549019607844" d="M 423.5 128 L 424 129.5 L 422.5 132 L 422 130.5 L 423.5 128 Z "></path><path fill="rgb(0,0,0)" stroke="rgb(0,0,0)" stroke-width="1" opacity="0.7372549019607844" d="M 573.5 132 L 572.5 134 L 573.5 132 Z "></path><path fill="rgb(0,0,0)" stroke="rgb(0,0,0)" stroke-width="1" opacity="0.7372549019607844" d="M 571.5 135 L 571 136.5 L 568.5 140 L 570 137.5 L 571.5 135 Z "></path><path fill="rgb(0,0,0)" stroke="rgb(0,0,0)" stroke-width="1" opacity="0.7372549019607844" d="M 567.5 141 L 566.5 143 L 567.5 141 Z "></path><path fill="rgb(0,0,0)" stroke="rgb(0,0,0)" stroke-width="1" opacity="0.7372549019607844" d="M 565.5 144 L 564.5 146 L 565.5 144 Z "></path><path fill="rgb(0,0,0)" stroke="rgb(0,0,0)" stroke-width="1" opacity="0.7372549019607844" d="M 563.5 147 L 561.5 150 L 563.5 147 Z "></path><path fill="rgb(0,0,0)" stroke="rgb(0,0,0)" stroke-width="1" opacity="0.7372549019607844" d="M 559.5 152 L 557.5 155 L 559.5 152 Z "></path><path fill="rgb(0,0,0)" stroke="rgb(0,0,0)" stroke-width="1" opacity="0.7372549019607844" d="M 556.5 156 L 553.5 160 L 556.5 156 Z "></path><path fill="rgb(0,0,0)" stroke="rgb(0,0,0)" stroke-width="1" opacity="0.7372549019607844" d="M 552.5 161 L 549.5 165 L 552.5 161 Z "></path><path fill="rgb(0,0,0)" stroke="rgb(0,0,0)" stroke-width="1" opacity="0.7372549019607844" d="M 543.5 171 L 539.5 176 L 543.5 171 Z "></path><path fill="rgb(0,0,0)" stroke="rgb(0,0,0)" stroke-width="1" opacity="0.7372549019607844" d="M 407.5 173 L 408 175.5 L 407 175.5 L 407.5 173 Z "></path><path fill="rgb(0,0,0)" stroke="rgb(0,0,0)" stroke-width="1" opacity="0.7372549019607844" d="M 531.5 182 L 530.5 184 L 531.5 182 Z "></path><path fill="rgb(0,0,0)" stroke="rgb(0,0,0)" stroke-width="1" opacity="0.7372549019607844" d="M 405.5 183 L 406 185.5 L 405 185.5 L 405.5 183 Z "></path><path fill="rgb(0,0,0)" stroke="rgb(0,0,0)" stroke-width="1" opacity="0.7372549019607844" d="M 526.5 186 L 524.5 189 L 526.5 186 Z "></path><path fill="rgb(0,0,0)" stroke="rgb(0,0,0)" stroke-width="1" opacity="0.7372549019607844" d="M 404.5 190 L 405 193.5 L 404 193.5 L 404.5 190 Z "></path><path fill="rgb(0,0,0)" stroke="rgb(0,0,0)" stroke-width="1" opacity="0.7372549019607844" d="M 521.5 190 L 520.5 192 L 521.5 190 Z "></path><path fill="rgb(0,0,0)" stroke="rgb(0,0,0)" stroke-width="1" opacity="0.7372549019607844" d="M 517.5 193 L 516.5 195 L 517.5 193 Z "></path><path fill="rgb(0,0,0)" stroke="rgb(0,0,0)" stroke-width="1" opacity="0.7372549019607844" d="M 514.5 195 L 512.5 198 L 514.5 195 Z "></path><path fill="rgb(0,0,0)" stroke="rgb(0,0,0)" stroke-width="1" opacity="0.7372549019607844" d="M 510.5 198 L 509.5 200 L 510.5 198 Z "></path><path fill="rgb(0,0,0)" stroke="rgb(0,0,0)" stroke-width="1" opacity="0.7372549019607844" d="M 403.5 200 L 404 208.5 L 403 208.5 L 403.5 200 Z "></path><path fill="rgb(0,0,0)" stroke="rgb(0,0,0)" stroke-width="1" opacity="0.7372549019607844" d="M 507.5 200 L 506.5 202 L 507.5 200 Z "></path><path fill="rgb(0,0,0)" stroke="rgb(0,0,0)" stroke-width="1" opacity="0.7372549019607844" d="M 502.5 203 L 501.5 205 L 502.5 203 Z "></path><path fill="rgb(0,0,0)" stroke="rgb(0,0,0)" stroke-width="1" opacity="0.7372549019607844" d="M 497.5 206 L 496.5 208 L 497.5 206 Z "></path><path fill="rgb(0,0,0)" stroke="rgb(0,0,0)" stroke-width="1" opacity="0.7372549019607844" d="M 403.5 214 L 404 220.5 L 403 220.5 L 403.5 214 Z "></path><path fill="rgb(0,0,0)" stroke="rgb(0,0,0)" stroke-width="1" opacity="0.7372549019607844" d="M 477.5 216 L 479 216.5 L 475.5 218 L 475.5 217 L 477.5 216 Z "></path><path fill="rgb(0,0,0)" stroke="rgb(0,0,0)" stroke-width="1" opacity="0.7372549019607844" d="M 404.5 224 L 405 226.5 L 404 226.5 L 404.5 224 Z "></path><path fill="rgb(0,0,0)" stroke="rgb(0,0,0)" stroke-width="1" opacity="0.7372549019607844" d="M 443.5 227 L 446 227.5 L 443.5 228 L 443.5 227 Z "></path><path fill="rgb(0,0,0)" stroke="rgb(0,0,0)" stroke-width="1" opacity="0.7372549019607844" d="M 438.5 228 L 441 228.5 L 438.5 229 L 438.5 228 Z "></path><path fill="rgb(0,0,0)" stroke="rgb(0,0,0)" stroke-width="1" opacity="0.7372549019607844" d="M 405.5 229 L 408 229.5 L 405.5 230 L 405.5 229 Z "></path><path fill="rgb(0,0,0)" stroke="rgb(0,0,0)" stroke-width="1" opacity="0.7372549019607844" d="M 431.5 229 L 435 229.5 L 431.5 230 L 431.5 229 Z "></path><path fill="rgb(0,0,0)" stroke="rgb(0,0,0)" stroke-width="1" opacity="0.7372549019607844" d="M 413.5 230 L 425 230.5 L 413.5 231 L 413.5 230 Z "></path><path fill="rgb(0,0,0)" stroke="rgb(0,0,0)" stroke-width="1" opacity="0.7372549019607844" d="M 572.5 242 L 579 242.5 L 572.5 243 L 572.5 242 Z "></path><path fill="rgb(0,0,0)" stroke="rgb(0,0,0)" stroke-width="1" opacity="0.7372549019607844" d="M 606.5 242 L 614 242.5 L 606.5 243 L 606.5 242 Z "></path><path fill="rgb(0,0,0)" stroke="rgb(0,0,0)" stroke-width="1" opacity="0.7372549019607844" d="M 563.5 243 L 568 243.5 L 563.5 244 L 563.5 243 Z "></path><path fill="rgb(0,0,0)" stroke="rgb(0,0,0)" stroke-width="1" opacity="0.7372549019607844" d="M 619.5 243 L 624 243.5 L 619.5 244 L 619.5 243 Z "></path><path fill="rgb(0,0,0)" stroke="rgb(0,0,0)" stroke-width="1" opacity="0.7372549019607844" d="M 238.5 244 L 260 244.5 L 238.5 245 L 238.5 244 Z "></path><path fill="rgb(0,0,0)" stroke="rgb(0,0,0)" stroke-width="1" opacity="0.7372549019607844" d="M 557.5 244 L 560 244.5 L 557.5 245 L 557.5 244 Z "></path><path fill="rgb(0,0,0)" stroke="rgb(0,0,0)" stroke-width="1" opacity="0.7372549019607844" d="M 627.5 244 L 631 244.5 L 627.5 245 L 627.5 244 Z "></path><path fill="rgb(0,0,0)" stroke="rgb(0,0,0)" stroke-width="1" opacity="0.7372549019607844" d="M 226.5 245 L 232 245.5 L 226.5 246 L 226.5 245 Z "></path><path fill="rgb(0,0,0)" stroke="rgb(0,0,0)" stroke-width="1" opacity="0.7372549019607844" d="M 266.5 245 L 270 245.5 L 266.5 246 L 266.5 245 Z "></path><path fill="rgb(0,0,0)" stroke="rgb(0,0,0)" stroke-width="1" opacity="0.7372549019607844" d="M 551.5 245 L 554 245.5 L 551.5 246 L 551.5 245 Z "></path><path fill="rgb(0,0,0)" stroke="rgb(0,0,0)" stroke-width="1" opacity="0.7372549019607844" d="M 634.5 245 L 637 245.5 L 634.5 246 L 634.5 245 Z "></path><path fill="rgb(0,0,0)" stroke="rgb(0,0,0)" stroke-width="1" opacity="0.7372549019607844" d="M 219.5 246 L 223 246.5 L 219.5 247 L 219.5 246 Z "></path><path fill="rgb(0,0,0)" stroke="rgb(0,0,0)" stroke-width="1" opacity="0.7372549019607844" d="M 274.5 246 L 277 246.5 L 274.5 247 L 274.5 246 Z "></path><path fill="rgb(0,0,0)" stroke="rgb(0,0,0)" stroke-width="1" opacity="0.7372549019607844" d="M 212.5 247 L 215 247.5 L 212.5 248 L 212.5 247 Z "></path><path fill="rgb(0,0,0)" stroke="rgb(0,0,0)" stroke-width="1" opacity="0.7372549019607844" d="M 280.5 247 L 283 247.5 L 280.5 248 L 280.5 247 Z "></path><path fill="rgb(0,0,0)" stroke="rgb(0,0,0)" stroke-width="1" opacity="0.7372549019607844" d="M 645.5 247 L 648 247.5 L 645.5 248 L 645.5 247 Z "></path><path fill="rgb(0,0,0)" stroke="rgb(0,0,0)" stroke-width="1" opacity="0.7372549019607844" d="M 206.5 248 L 209 248.5 L 206.5 249 L 206.5 248 Z "></path><path fill="rgb(0,0,0)" stroke="rgb(0,0,0)" stroke-width="1" opacity="0.7372549019607844" d="M 197.5 250 L 200 250.5 L 197.5 251 L 197.5 250 Z "></path><path fill="rgb(0,0,0)" stroke="rgb(0,0,0)" stroke-width="1" opacity="0.7372549019607844" d="M 294.5 250 L 297 250.5 L 294.5 251 L 294.5 250 Z "></path><path fill="rgb(0,0,0)" stroke="rgb(0,0,0)" stroke-width="1" opacity="0.7372549019607844" d="M 193.5 251 L 196 251.5 L 193.5 252 L 193.5 251 Z "></path><path fill="rgb(0,0,0)" stroke="rgb(0,0,0)" stroke-width="1" opacity="0.7372549019607844" d="M 692.5 262 L 696 263.5 L 694.5 264 L 692.5 262 Z "></path><path fill="rgb(0,0,0)" stroke="rgb(0,0,0)" stroke-width="1" opacity="0.7372549019607844" d="M 144.5 270 L 143.5 272 L 139.5 274 L 140.5 272 L 144.5 270 Z "></path><path fill="rgb(0,0,0)" stroke="rgb(0,0,0)" stroke-width="1" opacity="0.7372549019607844" d="M 713.5 272 L 717 274.5 L 715.5 274 L 713.5 272 Z "></path><path fill="rgb(0,0,0)" stroke="rgb(0,0,0)" stroke-width="1" opacity="0.7372549019607844" d="M 133.5 276 L 132.5 278 L 133.5 276 Z "></path><path fill="rgb(0,0,0)" stroke="rgb(0,0,0)" stroke-width="1" opacity="0.7372549019607844" d="M 720.5 276 L 721.5 278 L 720.5 276 Z "></path><path fill="rgb(0,0,0)" stroke="rgb(0,0,0)" stroke-width="1" opacity="0.7372549019607844" d="M 723.5 278 L 724.5 280 L 723.5 278 Z "></path><path fill="rgb(0,0,0)" stroke="rgb(0,0,0)" stroke-width="1" opacity="0.7372549019607844" d="M 126.5 280 L 125.5 282 L 126.5 280 Z "></path><path fill="rgb(0,0,0)" stroke="rgb(0,0,0)" stroke-width="1" opacity="0.7372549019607844" d="M 726.5 280 L 727.5 282 L 726.5 280 Z "></path><path fill="rgb(0,0,0)" stroke="rgb(0,0,0)" stroke-width="1" opacity="0.7372549019607844" d="M 123.5 282 L 121.5 285 L 123.5 282 Z "></path><path fill="rgb(0,0,0)" stroke="rgb(0,0,0)" stroke-width="1" opacity="0.7372549019607844" d="M 729.5 282 L 730.5 284 L 729.5 282 Z "></path><path fill="rgb(0,0,0)" stroke="rgb(0,0,0)" stroke-width="1" opacity="0.7372549019607844" d="M 390.5 284 L 393 284.5 L 390.5 285 L 390.5 284 Z "></path><path fill="rgb(0,0,0)" stroke="rgb(0,0,0)" stroke-width="1" opacity="0.7372549019607844" d="M 433.5 284 L 436 284.5 L 433.5 285 L 433.5 284 Z "></path><path fill="rgb(0,0,0)" stroke="rgb(0,0,0)" stroke-width="1" opacity="0.7372549019607844" d="M 732.5 284 L 734.5 287 L 732.5 284 Z "></path><path fill="rgb(0,0,0)" stroke="rgb(0,0,0)" stroke-width="1" opacity="0.7372549019607844" d="M 119.5 285 L 118.5 287 L 119.5 285 Z "></path><path fill="rgb(0,0,0)" stroke="rgb(0,0,0)" stroke-width="1" opacity="0.7372549019607844" d="M 399.5 286 L 402 286.5 L 399.5 287 L 399.5 286 Z "></path><path fill="rgb(0,0,0)" stroke="rgb(0,0,0)" stroke-width="1" opacity="0.7372549019607844" d="M 116.5 287 L 115.5 289 L 116.5 287 Z "></path><path fill="rgb(0,0,0)" stroke="rgb(0,0,0)" stroke-width="1" opacity="0.7372549019607844" d="M 405.5 287 L 412 287.5 L 405.5 288 L 405.5 287 Z "></path><path fill="rgb(0,0,0)" stroke="rgb(0,0,0)" stroke-width="1" opacity="0.7372549019607844" d="M 415.5 287 L 422 287.5 L 415.5 288 L 415.5 287 Z "></path><path fill="rgb(0,0,0)" stroke="rgb(0,0,0)" stroke-width="1" opacity="0.7372549019607844" d="M 736.5 287 L 737.5 289 L 736.5 287 Z "></path><path fill="rgb(0,0,0)" stroke="rgb(0,0,0)" stroke-width="1" opacity="0.7372549019607844" d="M 113.5 289 L 111.5 292 L 113.5 289 Z "></path><path fill="rgb(0,0,0)" stroke="rgb(0,0,0)" stroke-width="1" opacity="0.7372549019607844" d="M 739.5 289 L 741.5 292 L 739.5 289 Z "></path><path fill="rgb(0,0,0)" stroke="rgb(0,0,0)" stroke-width="1" opacity="0.7372549019607844" d="M 109.5 292 L 108.5 294 L 109.5 292 Z "></path><path fill="rgb(0,0,0)" stroke="rgb(0,0,0)" stroke-width="1" opacity="0.7372549019607844" d="M 744.5 293 L 747.5 297 L 744.5 293 Z "></path><path fill="rgb(0,0,0)" stroke="rgb(0,0,0)" stroke-width="1" opacity="0.7372549019607844" d="M 105.5 295 L 102.5 299 L 105.5 295 Z "></path><path fill="rgb(0,0,0)" stroke="rgb(0,0,0)" stroke-width="1" opacity="0.7372549019607844" d="M 751.5 299 L 758.5 307 L 751.5 299 Z "></path><path fill="rgb(0,0,0)" stroke="rgb(0,0,0)" stroke-width="1" opacity="0.7372549019607844" d="M 99.5 300 L 95.5 305 L 99.5 300 Z "></path><path fill="rgb(0,0,0)" stroke="rgb(0,0,0)" stroke-width="1" opacity="0.7372549019607844" d="M 91.5 307 L 78.5 321 L 91.5 307 Z "></path><path fill="rgb(0,0,0)" stroke="rgb(0,0,0)" stroke-width="1" opacity="0.7372549019607844" d="M 763.5 311 L 768.5 317 L 763.5 311 Z "></path><path fill="rgb(0,0,0)" stroke="rgb(0,0,0)" stroke-width="1" opacity="0.7372549019607844" d="M 772.5 321 L 776.5 326 L 772.5 321 Z "></path><path fill="rgb(0,0,0)" stroke="rgb(0,0,0)" stroke-width="1" opacity="0.7372549019607844" d="M 73.5 326 L 68.5 332 L 73.5 326 Z "></path><path fill="rgb(0,0,0)" stroke="rgb(0,0,0)" stroke-width="1" opacity="0.7372549019607844" d="M 778.5 328 L 781.5 332 L 778.5 328 Z "></path><path fill="rgb(0,0,0)" stroke="rgb(0,0,0)" stroke-width="1" opacity="0.7372549019607844" d="M 782.5 333 L 783.5 335 L 782.5 333 Z "></path><path fill="rgb(0,0,0)" stroke="rgb(0,0,0)" stroke-width="1" opacity="0.7372549019607844" d="M 66.5 334 L 64.5 337 L 66.5 334 Z "></path><path fill="rgb(0,0,0)" stroke="rgb(0,0,0)" stroke-width="1" opacity="0.7372549019607844" d="M 784.5 336 L 785.5 338 L 784.5 336 Z "></path><path fill="rgb(0,0,0)" stroke="rgb(0,0,0)" stroke-width="1" opacity="0.7372549019607844" d="M 62.5 339 L 60.5 342 L 62.5 339 Z "></path><path fill="rgb(0,0,0)" stroke="rgb(0,0,0)" stroke-width="1" opacity="0.7372549019607844" d="M 787.5 340 L 788 342 L 785.5 343 L 787.5 340 Z "></path><path fill="rgb(0,0,0)" stroke="rgb(0,0,0)" stroke-width="1" opacity="0.7372549019607844" d="M 59.5 343 L 58.5 345 L 59.5 343 Z "></path><path fill="rgb(0,0,0)" stroke="rgb(0,0,0)" stroke-width="1" opacity="0.7372549019607844" d="M 783.5 343 L 782.5 345 L 783.5 343 Z "></path><path fill="rgb(0,0,0)" stroke="rgb(0,0,0)" stroke-width="1" opacity="0.7372549019607844" d="M 780.5 345 L 778.5 348 L 780.5 345 Z "></path><path fill="rgb(0,0,0)" stroke="rgb(0,0,0)" stroke-width="1" opacity="0.7372549019607844" d="M 57.5 346 L 55.5 349 L 57.5 346 Z "></path><path fill="rgb(0,0,0)" stroke="rgb(0,0,0)" stroke-width="1" opacity="0.7372549019607844" d="M 776.5 348 L 775.5 350 L 776.5 348 Z "></path><path fill="rgb(0,0,0)" stroke="rgb(0,0,0)" stroke-width="1" opacity="0.7372549019607844" d="M 54.5 350 L 53.5 352 L 54.5 350 Z "></path><path fill="rgb(0,0,0)" stroke="rgb(0,0,0)" stroke-width="1" opacity="0.7372549019607844" d="M 772.5 351 L 771.5 353 L 772.5 351 Z "></path><path fill="rgb(0,0,0)" stroke="rgb(0,0,0)" stroke-width="1" opacity="0.7372549019607844" d="M 52.5 353 L 51.5 355 L 52.5 353 Z "></path><path fill="rgb(0,0,0)" stroke="rgb(0,0,0)" stroke-width="1" opacity="0.7372549019607844" d="M 769.5 353 L 766.5 357 L 769.5 353 Z "></path><path fill="rgb(0,0,0)" stroke="rgb(0,0,0)" stroke-width="1" opacity="0.7372549019607844" d="M 50.5 356 L 49.5 358 L 50.5 356 Z "></path><path fill="rgb(0,0,0)" stroke="rgb(0,0,0)" stroke-width="1" opacity="0.7372549019607844" d="M 764.5 357 L 761.5 361 L 764.5 357 Z "></path><path fill="rgb(0,0,0)" stroke="rgb(0,0,0)" stroke-width="1" opacity="0.7372549019607844" d="M 48.5 359 L 47.5 361 L 48.5 359 Z "></path><path fill="rgb(0,0,0)" stroke="rgb(0,0,0)" stroke-width="1" opacity="0.7372549019607844" d="M 757.5 363 L 754.5 367 L 757.5 363 Z "></path><path fill="rgb(0,0,0)" stroke="rgb(0,0,0)" stroke-width="1" opacity="0.7372549019607844" d="M 45.5 364 L 44.5 366 L 45.5 364 Z "></path><path fill="rgb(0,0,0)" stroke="rgb(0,0,0)" stroke-width="1" opacity="0.7372549019607844" d="M 41.5 371 L 40.5 373 L 41.5 371 Z "></path><path fill="rgb(0,0,0)" stroke="rgb(0,0,0)" stroke-width="1" opacity="0.7372549019607844" d="M 34.5 384 L 34 385.5 L 33.5 387 L 33 385.5 L 34.5 384 Z "></path><path fill="rgb(0,0,0)" stroke="rgb(0,0,0)" stroke-width="1" opacity="0.7372549019607844" d="M 736.5 384 L 731.5 390 L 736.5 384 Z "></path><path fill="rgb(0,0,0)" stroke="rgb(0,0,0)" stroke-width="1" opacity="0.7372549019607844" d="M 730.5 391 L 727.5 395 L 730.5 391 Z "></path><path fill="rgb(0,0,0)" stroke="rgb(0,0,0)" stroke-width="1" opacity="0.7372549019607844" d="M 726.5 396 L 723.5 400 L 726.5 396 Z "></path><path fill="rgb(0,0,0)" stroke="rgb(0,0,0)" stroke-width="1" opacity="0.7372549019607844" d="M 722.5 401 L 720.5 404 L 722.5 401 Z "></path><path fill="rgb(0,0,0)" stroke="rgb(0,0,0)" stroke-width="1" opacity="0.7372549019607844" d="M 719.5 405 L 718.5 407 L 719.5 405 Z "></path><path fill="rgb(0,0,0)" stroke="rgb(0,0,0)" stroke-width="1" opacity="0.7372549019607844" d="M 717.5 408 L 716.5 410 L 717.5 408 Z "></path><path fill="rgb(0,0,0)" stroke="rgb(0,0,0)" stroke-width="1" opacity="0.7372549019607844" d="M 715.5 411 L 714.5 413 L 715.5 411 Z "></path><path fill="rgb(0,0,0)" stroke="rgb(0,0,0)" stroke-width="1" opacity="0.7372549019607844" d="M 713.5 414 L 712.5 416 L 713.5 414 Z "></path><path fill="rgb(0,0,0)" stroke="rgb(0,0,0)" stroke-width="1" opacity="0.7372549019607844" d="M 710.5 419 L 710 420.5 L 708.5 423 L 709 421.5 L 710.5 419 Z "></path><path fill="rgb(0,0,0)" stroke="rgb(0,0,0)" stroke-width="1" opacity="0.7372549019607844" d="M 706.5 426 L 705.5 428 L 706.5 426 Z "></path><path fill="rgb(0,0,0)" stroke="rgb(0,0,0)" stroke-width="1" opacity="0.7372549019607844" d="M 8.5 458 L 9 460.5 L 8 460.5 L 8.5 458 Z "></path><path fill="rgb(0,0,0)" stroke="rgb(0,0,0)" stroke-width="1" opacity="0.7372549019607844" d="M 7.5 463 L 8 465.5 L 7 465.5 L 7.5 463 Z "></path><path fill="rgb(0,0,0)" stroke="rgb(0,0,0)" stroke-width="1" opacity="0.7372549019607844" d="M 5.5 474 L 6 476.5 L 5 476.5 L 5.5 474 Z "></path><path fill="rgb(0,0,0)" stroke="rgb(0,0,0)" stroke-width="1" opacity="0.7372549019607844" d="M 4.5 481 L 5 483.5 L 4 483.5 L 4.5 481 Z "></path><path fill="rgb(0,0,0)" stroke="rgb(0,0,0)" stroke-width="1" opacity="0.7372549019607844" d="M 3.5 487 L 4 490.5 L 3 490.5 L 3.5 487 Z "></path><path fill="rgb(0,0,0)" stroke="rgb(0,0,0)" stroke-width="1" opacity="0.7372549019607844" d="M 683.5 489 L 684 491.5 L 683 491.5 L 683.5 489 Z "></path><path fill="rgb(0,0,0)" stroke="rgb(0,0,0)" stroke-width="1" opacity="0.7372549019607844" d="M 682.5 495 L 683 497.5 L 682 497.5 L 682.5 495 Z "></path><path fill="rgb(0,0,0)" stroke="rgb(0,0,0)" stroke-width="1" opacity="0.7372549019607844" d="M 2.5 496 L 3 499.5 L 2 499.5 L 2.5 496 Z "></path><path fill="rgb(0,0,0)" stroke="rgb(0,0,0)" stroke-width="1" opacity="0.7372549019607844" d="M 681.5 502 L 682 505.5 L 681 505.5 L 681.5 502 Z "></path><path fill="rgb(0,0,0)" stroke="rgb(0,0,0)" stroke-width="1" opacity="0.7372549019607844" d="M 1.5 505 L 2 511.5 L 1 511.5 L 1.5 505 Z "></path><path fill="rgb(0,0,0)" stroke="rgb(0,0,0)" stroke-width="1" opacity="0.7372549019607844" d="M 680.5 510 L 681 517.5 L 680 517.5 L 680.5 510 Z "></path><path fill="rgb(0,0,0)" stroke="rgb(0,0,0)" stroke-width="1" opacity="0.7372549019607844" d="M 0.5 519 L 1 531.5 L 0 531.5 L 0.5 519 Z "></path><path fill="rgb(0,0,0)" stroke="rgb(0,0,0)" stroke-width="1" opacity="0.7372549019607844" d="M 680.5 547 L 681 552.5 L 680 552.5 L 680.5 547 Z "></path><path fill="rgb(0,0,0)" stroke="rgb(0,0,0)" stroke-width="1" opacity="0.7372549019607844" d="M 0.5 548 L 1 565.5 L 0 565.5 L 0.5 548 Z "></path><path fill="rgb(0,0,0)" stroke="rgb(0,0,0)" stroke-width="1" opacity="0.7372549019607844" d="M 681.5 559 L 682 562.5 L 681 562.5 L 681.5 559 Z "></path><path fill="rgb(0,0,0)" stroke="rgb(0,0,0)" stroke-width="1" opacity="0.7372549019607844" d="M 682.5 566 L 683 569.5 L 682 569.5 L 682.5 566 Z "></path><path fill="rgb(0,0,0)" stroke="rgb(0,0,0)" stroke-width="1" opacity="0.7372549019607844" d="M 1.5 574 L 2 581.5 L 1 581.5 L 1.5 574 Z "></path><path fill="rgb(0,0,0)" stroke="rgb(0,0,0)" stroke-width="1" opacity="0.7372549019607844" d="M 684.5 577 L 685 579.5 L 684 579.5 L 684.5 577 Z "></path><path fill="rgb(0,0,0)" stroke="rgb(0,0,0)" stroke-width="1" opacity="0.7372549019607844" d="M 2.5 589 L 3 592.5 L 2 592.5 L 2.5 589 Z "></path><path fill="rgb(0,0,0)" stroke="rgb(0,0,0)" stroke-width="1" opacity="0.7372549019607844" d="M 3.5 597 L 4 600.5 L 3 600.5 L 3.5 597 Z "></path><path fill="rgb(0,0,0)" stroke="rgb(0,0,0)" stroke-width="1" opacity="0.7372549019607844" d="M 4.5 605 L 5 608.5 L 4 608.5 L 4.5 605 Z "></path><path fill="rgb(0,0,0)" stroke="rgb(0,0,0)" stroke-width="1" opacity="0.7372549019607844" d="M 5.5 613 L 6 615.5 L 5 615.5 L 5.5 613 Z "></path><path fill="rgb(0,0,0)" stroke="rgb(0,0,0)" stroke-width="1" opacity="0.7372549019607844" d="M 6.5 619 L 7 621.5 L 6 621.5 L 6.5 619 Z "></path><path fill="rgb(0,0,0)" stroke="rgb(0,0,0)" stroke-width="1" opacity="0.7372549019607844" d="M 7.5 626 L 8 628.5 L 7 628.5 L 7.5 626 Z "></path><path fill="rgb(0,0,0)" stroke="rgb(0,0,0)" stroke-width="1" opacity="0.7372549019607844" d="M 8.5 632 L 9 634.5 L 8 634.5 L 8.5 632 Z "></path><path fill="rgb(0,0,0)" stroke="rgb(0,0,0)" stroke-width="1" opacity="0.7372549019607844" d="M 703.5 632 L 706 635.5 L 704 634.5 L 703.5 632 Z "></path><path fill="rgb(0,0,0)" stroke="rgb(0,0,0)" stroke-width="1" opacity="0.7372549019607844" d="M 707.5 639 L 710 642.5 L 708 641.5 L 707.5 639 Z "></path><path fill="rgb(0,0,0)" stroke="rgb(0,0,0)" stroke-width="1" opacity="0.7372549019607844" d="M 10.5 643 L 11 645.5 L 10 645.5 L 10.5 643 Z "></path><path fill="rgb(0,0,0)" stroke="rgb(0,0,0)" stroke-width="1" opacity="0.7372549019607844" d="M 710.5 644 L 711.5 646 L 710.5 644 Z "></path><path fill="rgb(0,0,0)" stroke="rgb(0,0,0)" stroke-width="1" opacity="0.7372549019607844" d="M 11.5 648 L 12 650.5 L 11 650.5 L 11.5 648 Z "></path><path fill="rgb(0,0,0)" stroke="rgb(0,0,0)" stroke-width="1" opacity="0.7372549019607844" d="M 713.5 649 L 714.5 651 L 713.5 649 Z "></path><path fill="rgb(0,0,0)" stroke="rgb(0,0,0)" stroke-width="1" opacity="0.7372549019607844" d="M 715.5 652 L 716.5 654 L 715.5 652 Z "></path><path fill="rgb(0,0,0)" stroke="rgb(0,0,0)" stroke-width="1" opacity="0.7372549019607844" d="M 717.5 655 L 719.5 658 L 717.5 655 Z "></path><path fill="rgb(0,0,0)" stroke="rgb(0,0,0)" stroke-width="1" opacity="0.7372549019607844" d="M 13.5 658 L 14 660.5 L 13 660.5 L 13.5 658 Z "></path><path fill="rgb(0,0,0)" stroke="rgb(0,0,0)" stroke-width="1" opacity="0.7372549019607844" d="M 720.5 659 L 721.5 661 L 720.5 659 Z "></path><path fill="rgb(0,0,0)" stroke="rgb(0,0,0)" stroke-width="1" opacity="0.7372549019607844" d="M 723.5 663 L 725.5 666 L 723.5 663 Z "></path><path fill="rgb(0,0,0)" stroke="rgb(0,0,0)" stroke-width="1" opacity="0.7372549019607844" d="M 727.5 668 L 731.5 673 L 727.5 668 Z "></path><path fill="rgb(0,0,0)" stroke="rgb(0,0,0)" stroke-width="1" opacity="0.7372549019607844" d="M 735.5 677 L 743.5 686 L 735.5 677 Z "></path><path fill="rgb(0,0,0)" stroke="rgb(0,0,0)" stroke-width="1" opacity="0.7372549019607844" d="M 747.5 689 L 751.5 694 L 747.5 689 Z "></path><path fill="rgb(0,0,0)" stroke="rgb(0,0,0)" stroke-width="1" opacity="0.7372549019607844" d="M 755.5 696 L 758.5 700 L 755.5 696 Z "></path><path fill="rgb(0,0,0)" stroke="rgb(0,0,0)" stroke-width="1" opacity="0.7372549019607844" d="M 761.5 701 L 763.5 704 L 761.5 701 Z "></path><path fill="rgb(0,0,0)" stroke="rgb(0,0,0)" stroke-width="1" opacity="0.7372549019607844" d="M 766.5 705 L 768.5 708 L 766.5 705 Z "></path><path fill="rgb(0,0,0)" stroke="rgb(0,0,0)" stroke-width="1" opacity="0.7372549019607844" d="M 770.5 708 L 771.5 710 L 770.5 708 Z "></path><path fill="rgb(0,0,0)" stroke="rgb(0,0,0)" stroke-width="1" opacity="0.7372549019607844" d="M 773.5 710 L 775.5 713 L 773.5 710 Z "></path><path fill="rgb(0,0,0)" stroke="rgb(0,0,0)" stroke-width="1" opacity="0.7372549019607844" d="M 777.5 713 L 778.5 715 L 777.5 713 Z "></path><path fill="rgb(0,0,0)" stroke="rgb(0,0,0)" stroke-width="1" opacity="0.7372549019607844" d="M 780.5 715 L 781.5 717 L 780.5 715 Z "></path><path fill="rgb(0,0,0)" stroke="rgb(0,0,0)" stroke-width="1" opacity="0.7372549019607844" d="M 785.5 718 L 786.5 720 L 785.5 718 Z "></path><path fill="rgb(0,0,0)" stroke="rgb(0,0,0)" stroke-width="1" opacity="0.7372549019607844" d="M 788.5 720 L 792 722.5 L 790.5 722 L 788.5 720 Z "></path><path fill="rgb(0,0,0)" stroke="rgb(0,0,0)" stroke-width="1" opacity="0.7372549019607844" d="M 795.5 724 L 796.5 726 L 795.5 724 Z "></path><path fill="rgb(0,0,0)" stroke="rgb(0,0,0)" stroke-width="1" opacity="0.7372549019607844" d="M 46.5 764 L 48 767.5 L 47 767.5 L 46.5 764 Z "></path><path fill="rgb(0,0,0)" stroke="rgb(0,0,0)" stroke-width="1" opacity="0.7372549019607844" d="M 53.5 780 L 55 783.5 L 54 783.5 L 53.5 780 Z "></path><path fill="rgb(0,0,0)" stroke="rgb(0,0,0)" stroke-width="1" opacity="0.7372549019607844" d="M 794.5 785 L 795 786.5 L 793.5 789 L 793 787.5 L 794.5 785 Z "></path><path fill="rgb(0,0,0)" stroke="rgb(0,0,0)" stroke-width="1" opacity="0.7372549019607844" d="M 59.5 793 L 61 796.5 L 60 796.5 L 59.5 793 Z "></path><path fill="rgb(0,0,0)" stroke="rgb(0,0,0)" stroke-width="1" opacity="0.7372549019607844" d="M 790.5 794 L 791 795.5 L 789.5 798 L 789 796.5 L 790.5 794 Z "></path><path fill="rgb(0,0,0)" stroke="rgb(0,0,0)" stroke-width="1" opacity="0.7372549019607844" d="M 71.5 818 L 75 823.5 L 73 822.5 L 71.5 818 Z "></path><path fill="rgb(0,0,0)" stroke="rgb(0,0,0)" stroke-width="1" opacity="0.7372549019607844" d="M 774.5 827 L 774 828.5 L 772.5 831 L 773 829.5 L 774.5 827 Z "></path><path fill="rgb(0,0,0)" stroke="rgb(0,0,0)" stroke-width="1" opacity="0.7372549019607844" d="M 77.5 829 L 78.5 831 L 77.5 829 Z "></path><path fill="rgb(0,0,0)" stroke="rgb(0,0,0)" stroke-width="1" opacity="0.7372549019607844" d="M 81.5 836 L 84 839.5 L 82 838.5 L 81.5 836 Z "></path><path fill="rgb(0,0,0)" stroke="rgb(0,0,0)" stroke-width="1" opacity="0.7372549019607844" d="M 768.5 838 L 767.5 840 L 768.5 838 Z "></path><path fill="rgb(0,0,0)" stroke="rgb(0,0,0)" stroke-width="1" opacity="0.7372549019607844" d="M 85.5 843 L 86.5 845 L 85.5 843 Z "></path><path fill="rgb(0,0,0)" stroke="rgb(0,0,0)" stroke-width="1" opacity="0.7372549019607844" d="M 765.5 843 L 765 844.5 L 763.5 847 L 764 845.5 L 765.5 843 Z "></path><path fill="rgb(0,0,0)" stroke="rgb(0,0,0)" stroke-width="1" opacity="0.7372549019607844" d="M 87.5 846 L 90 849.5 L 88 848.5 L 87.5 846 Z "></path><path fill="rgb(0,0,0)" stroke="rgb(0,0,0)" stroke-width="1" opacity="0.7372549019607844" d="M 761.5 850 L 760.5 852 L 761.5 850 Z "></path><path fill="rgb(0,0,0)" stroke="rgb(0,0,0)" stroke-width="1" opacity="0.7372549019607844" d="M 90.5 851 L 93 854.5 L 91 853.5 L 90.5 851 Z "></path><path fill="rgb(0,0,0)" stroke="rgb(0,0,0)" stroke-width="1" opacity="0.7372549019607844" d="M 759.5 853 L 758.5 855 L 759.5 853 Z "></path><path fill="rgb(0,0,0)" stroke="rgb(0,0,0)" stroke-width="1" opacity="0.7372549019607844" d="M 93.5 856 L 94.5 858 L 93.5 856 Z "></path><path fill="rgb(0,0,0)" stroke="rgb(0,0,0)" stroke-width="1" opacity="0.7372549019607844" d="M 756.5 858 L 755.5 860 L 756.5 858 Z "></path><path fill="rgb(0,0,0)" stroke="rgb(0,0,0)" stroke-width="1" opacity="0.7372549019607844" d="M 95.5 859 L 96.5 861 L 95.5 859 Z "></path><path fill="rgb(0,0,0)" stroke="rgb(0,0,0)" stroke-width="1" opacity="0.7372549019607844" d="M 97.5 862 L 98.5 864 L 97.5 862 Z "></path><path fill="rgb(0,0,0)" stroke="rgb(0,0,0)" stroke-width="1" opacity="0.7372549019607844" d="M 753.5 863 L 752.5 865 L 753.5 863 Z "></path><path fill="rgb(0,0,0)" stroke="rgb(0,0,0)" stroke-width="1" opacity="0.7372549019607844" d="M 99.5 865 L 100.5 867 L 99.5 865 Z "></path><path fill="rgb(0,0,0)" stroke="rgb(0,0,0)" stroke-width="1" opacity="0.7372549019607844" d="M 751.5 866 L 750.5 868 L 751.5 866 Z "></path><path fill="rgb(0,0,0)" stroke="rgb(0,0,0)" stroke-width="1" opacity="0.7372549019607844" d="M 101.5 868 L 102.5 870 L 101.5 868 Z "></path><path fill="rgb(0,0,0)" stroke="rgb(0,0,0)" stroke-width="1" opacity="0.7372549019607844" d="M 749.5 869 L 748.5 871 L 749.5 869 Z "></path><path fill="rgb(0,0,0)" stroke="rgb(0,0,0)" stroke-width="1" opacity="0.7372549019607844" d="M 103.5 871 L 104.5 873 L 103.5 871 Z "></path><path fill="rgb(0,0,0)" stroke="rgb(0,0,0)" stroke-width="1" opacity="0.7372549019607844" d="M 747.5 872 L 746.5 874 L 747.5 872 Z "></path><path fill="rgb(0,0,0)" stroke="rgb(0,0,0)" stroke-width="1" opacity="0.7372549019607844" d="M 105.5 874 L 107.5 877 L 105.5 874 Z "></path><path fill="rgb(0,0,0)" stroke="rgb(0,0,0)" stroke-width="1" opacity="0.7372549019607844" d="M 745.5 875 L 744.5 877 L 745.5 875 Z "></path><path fill="rgb(0,0,0)" stroke="rgb(0,0,0)" stroke-width="1" opacity="0.7372549019607844" d="M 108.5 878 L 109.5 880 L 108.5 878 Z "></path><path fill="rgb(0,0,0)" stroke="rgb(0,0,0)" stroke-width="1" opacity="0.7372549019607844" d="M 743.5 878 L 741.5 881 L 743.5 878 Z "></path><path fill="rgb(0,0,0)" stroke="rgb(0,0,0)" stroke-width="1" opacity="0.7372549019607844" d="M 110.5 881 L 112.5 884 L 110.5 881 Z "></path><path fill="rgb(0,0,0)" stroke="rgb(0,0,0)" stroke-width="1" opacity="0.7372549019607844" d="M 740.5 882 L 739.5 884 L 740.5 882 Z "></path><path fill="rgb(0,0,0)" stroke="rgb(0,0,0)" stroke-width="1" opacity="0.7372549019607844" d="M 113.5 885 L 115.5 888 L 113.5 885 Z "></path><path fill="rgb(0,0,0)" stroke="rgb(0,0,0)" stroke-width="1" opacity="0.7372549019607844" d="M 738.5 885 L 737.5 887 L 738.5 885 Z "></path><path fill="rgb(0,0,0)" stroke="rgb(0,0,0)" stroke-width="1" opacity="0.7372549019607844" d="M 116.5 889 L 117.5 891 L 116.5 889 Z "></path><path fill="rgb(0,0,0)" stroke="rgb(0,0,0)" stroke-width="1" opacity="0.7372549019607844" d="M 735.5 889 L 734.5 891 L 735.5 889 Z "></path><path fill="rgb(0,0,0)" stroke="rgb(0,0,0)" stroke-width="1" opacity="0.7372549019607844" d="M 118.5 892 L 120.5 895 L 118.5 892 Z "></path><path fill="rgb(0,0,0)" stroke="rgb(0,0,0)" stroke-width="1" opacity="0.7372549019607844" d="M 733.5 892 L 732.5 894 L 733.5 892 Z "></path><path fill="rgb(0,0,0)" stroke="rgb(0,0,0)" stroke-width="1" opacity="0.7372549019607844" d="M 731.5 895 L 729.5 898 L 731.5 895 Z "></path><path fill="rgb(0,0,0)" stroke="rgb(0,0,0)" stroke-width="1" opacity="0.7372549019607844" d="M 121.5 896 L 123.5 899 L 121.5 896 Z "></path><path fill="rgb(0,0,0)" stroke="rgb(0,0,0)" stroke-width="1" opacity="0.7372549019607844" d="M 728.5 899 L 726.5 902 L 728.5 899 Z "></path><path fill="rgb(0,0,0)" stroke="rgb(0,0,0)" stroke-width="1" opacity="0.7372549019607844" d="M 124.5 900 L 126.5 903 L 124.5 900 Z "></path><path fill="rgb(0,0,0)" stroke="rgb(0,0,0)" stroke-width="1" opacity="0.7372549019607844" d="M 725.5 903 L 723.5 906 L 725.5 903 Z "></path><path fill="rgb(0,0,0)" stroke="rgb(0,0,0)" stroke-width="1" opacity="0.7372549019607844" d="M 127.5 904 L 129.5 907 L 127.5 904 Z "></path><path fill="rgb(0,0,0)" stroke="rgb(0,0,0)" stroke-width="1" opacity="0.7372549019607844" d="M 722.5 907 L 720.5 910 L 722.5 907 Z "></path><path fill="rgb(0,0,0)" stroke="rgb(0,0,0)" stroke-width="1" opacity="0.7372549019607844" d="M 130.5 908 L 132.5 911 L 130.5 908 Z "></path><path fill="rgb(0,0,0)" stroke="rgb(0,0,0)" stroke-width="1" opacity="0.7372549019607844" d="M 719.5 911 L 717.5 914 L 719.5 911 Z "></path><path fill="rgb(0,0,0)" stroke="rgb(0,0,0)" stroke-width="1" opacity="0.7372549019607844" d="M 133.5 912 L 135.5 915 L 133.5 912 Z "></path><path fill="rgb(0,0,0)" stroke="rgb(0,0,0)" stroke-width="1" opacity="0.7372549019607844" d="M 716.5 915 L 714.5 918 L 716.5 915 Z "></path><path fill="rgb(0,0,0)" stroke="rgb(0,0,0)" stroke-width="1" opacity="0.7372549019607844" d="M 136.5 916 L 138.5 919 L 136.5 916 Z "></path><path fill="rgb(0,0,0)" stroke="rgb(0,0,0)" stroke-width="1" opacity="0.7372549019607844" d="M 713.5 919 L 711.5 922 L 713.5 919 Z "></path><path fill="rgb(0,0,0)" stroke="rgb(0,0,0)" stroke-width="1" opacity="0.7372549019607844" d="M 139.5 920 L 142.5 924 L 139.5 920 Z "></path><path fill="rgb(0,0,0)" stroke="rgb(0,0,0)" stroke-width="1" opacity="0.7372549019607844" d="M 709.5 924 L 707.5 927 L 709.5 924 Z "></path><path fill="rgb(0,0,0)" stroke="rgb(0,0,0)" stroke-width="1" opacity="0.7372549019607844" d="M 144.5 926 L 147.5 930 L 144.5 926 Z "></path><path fill="rgb(0,0,0)" stroke="rgb(0,0,0)" stroke-width="1" opacity="0.7372549019607844" d="M 705.5 929 L 702.5 933 L 705.5 929 Z "></path><path fill="rgb(0,0,0)" stroke="rgb(0,0,0)" stroke-width="1" opacity="0.7372549019607844" d="M 149.5 932 L 152.5 936 L 149.5 932 Z "></path><path fill="rgb(0,0,0)" stroke="rgb(0,0,0)" stroke-width="1" opacity="0.7372549019607844" d="M 700.5 935 L 697.5 939 L 700.5 935 Z "></path><path fill="rgb(0,0,0)" stroke="rgb(0,0,0)" stroke-width="1" opacity="0.7372549019607844" d="M 155.5 939 L 157.5 942 L 155.5 939 Z "></path><path fill="rgb(0,0,0)" stroke="rgb(0,0,0)" stroke-width="1" opacity="0.7372549019607844" d="M 693.5 943 L 688.5 949 L 693.5 943 Z "></path><path fill="rgb(0,0,0)" stroke="rgb(0,0,0)" stroke-width="1" opacity="0.7372549019607844" d="M 164.5 949 L 177.5 963 L 164.5 949 Z "></path><path fill="rgb(0,0,0)" stroke="rgb(0,0,0)" stroke-width="1" opacity="0.7372549019607844" d="M 680.5 956 L 675.5 962 L 680.5 956 Z "></path><path fill="rgb(0,0,0)" stroke="rgb(0,0,0)" stroke-width="1" opacity="0.7372549019607844" d="M 408.5 959 L 416 959.5 L 408.5 960 L 408.5 959 Z "></path><path fill="rgb(0,0,0)" stroke="rgb(0,0,0)" stroke-width="1" opacity="0.7372549019607844" d="M 436.5 959 L 444 959.5 L 436.5 960 L 436.5 959 Z "></path><path fill="rgb(0,0,0)" stroke="rgb(0,0,0)" stroke-width="1" opacity="0.7372549019607844" d="M 399.5 960 L 403 960.5 L 399.5 961 L 399.5 960 Z "></path><path fill="rgb(0,0,0)" stroke="rgb(0,0,0)" stroke-width="1" opacity="0.7372549019607844" d="M 449.5 960 L 453 960.5 L 449.5 961 L 449.5 960 Z "></path><path fill="rgb(0,0,0)" stroke="rgb(0,0,0)" stroke-width="1" opacity="0.7372549019607844" d="M 393.5 961 L 396 961.5 L 393.5 962 L 393.5 961 Z "></path><path fill="rgb(0,0,0)" stroke="rgb(0,0,0)" stroke-width="1" opacity="0.7372549019607844" d="M 456.5 961 L 459 961.5 L 456.5 962 L 456.5 961 Z "></path><path fill="rgb(0,0,0)" stroke="rgb(0,0,0)" stroke-width="1" opacity="0.7372549019607844" d="M 387.5 962 L 390 962.5 L 387.5 963 L 387.5 962 Z "></path><path fill="rgb(0,0,0)" stroke="rgb(0,0,0)" stroke-width="1" opacity="0.7372549019607844" d="M 462.5 962 L 465 962.5 L 462.5 963 L 462.5 962 Z "></path><path fill="rgb(0,0,0)" stroke="rgb(0,0,0)" stroke-width="1" opacity="0.7372549019607844" d="M 471.5 964 L 474 964.5 L 471.5 965 L 471.5 964 Z "></path><path fill="rgb(0,0,0)" stroke="rgb(0,0,0)" stroke-width="1" opacity="0.7372549019607844" d="M 670.5 965 L 667.5 969 L 670.5 965 Z "></path><path fill="rgb(0,0,0)" stroke="rgb(0,0,0)" stroke-width="1" opacity="0.7372549019607844" d="M 182.5 966 L 185.5 970 L 182.5 966 Z "></path><path fill="rgb(0,0,0)" stroke="rgb(0,0,0)" stroke-width="1" opacity="0.7372549019607844" d="M 664.5 970 L 662.5 973 L 664.5 970 Z "></path><path fill="rgb(0,0,0)" stroke="rgb(0,0,0)" stroke-width="1" opacity="0.7372549019607844" d="M 188.5 971 L 190.5 974 L 188.5 971 Z "></path><path fill="rgb(0,0,0)" stroke="rgb(0,0,0)" stroke-width="1" opacity="0.7372549019607844" d="M 660.5 973 L 658.5 976 L 660.5 973 Z "></path><path fill="rgb(0,0,0)" stroke="rgb(0,0,0)" stroke-width="1" opacity="0.7372549019607844" d="M 193.5 975 L 195.5 978 L 193.5 975 Z "></path><path fill="rgb(0,0,0)" stroke="rgb(0,0,0)" stroke-width="1" opacity="0.7372549019607844" d="M 656.5 976 L 655.5 978 L 656.5 976 Z "></path><path fill="rgb(0,0,0)" stroke="rgb(0,0,0)" stroke-width="1" opacity="0.7372549019607844" d="M 197.5 978 L 198.5 980 L 197.5 978 Z "></path><path fill="rgb(0,0,0)" stroke="rgb(0,0,0)" stroke-width="1" opacity="0.7372549019607844" d="M 336.5 979 L 338 979.5 L 334.5 981 L 334.5 980 L 336.5 979 Z "></path><path fill="rgb(0,0,0)" stroke="rgb(0,0,0)" stroke-width="1" opacity="0.7372549019607844" d="M 513.5 979 L 517 980.5 L 515.5 981 L 513.5 979 Z "></path><path fill="rgb(0,0,0)" stroke="rgb(0,0,0)" stroke-width="1" opacity="0.7372549019607844" d="M 651.5 979 L 650.5 981 L 651.5 979 Z "></path><path fill="rgb(0,0,0)" stroke="rgb(0,0,0)" stroke-width="1" opacity="0.7372549019607844" d="M 200.5 980 L 201.5 982 L 200.5 980 Z "></path><path fill="rgb(0,0,0)" stroke="rgb(0,0,0)" stroke-width="1" opacity="0.7372549019607844" d="M 648.5 981 L 647.5 983 L 648.5 981 Z "></path><path fill="rgb(0,0,0)" stroke="rgb(0,0,0)" stroke-width="1" opacity="0.7372549019607844" d="M 205.5 983 L 206.5 985 L 205.5 983 Z "></path><path fill="rgb(0,0,0)" stroke="rgb(0,0,0)" stroke-width="1" opacity="0.7372549019607844" d="M 212.5 987 L 216 989.5 L 214.5 989 L 212.5 987 Z "></path><path fill="rgb(0,0,0)" stroke="rgb(0,0,0)" stroke-width="1" opacity="0.7372549019607844" d="M 558.5 995 L 561 995.5 L 558.5 996 L 558.5 995 Z "></path><path fill="rgb(0,0,0)" stroke="rgb(0,0,0)" stroke-width="1" opacity="0.7372549019607844" d="M 563.5 996 L 566 996.5 L 563.5 997 L 563.5 996 Z "></path><path fill="rgb(0,0,0)" stroke="rgb(0,0,0)" stroke-width="1" opacity="0.7372549019607844" d="M 608.5 996 L 611 996.5 L 608.5 997 L 608.5 996 Z "></path><path fill="rgb(0,0,0)" stroke="rgb(0,0,0)" stroke-width="1" opacity="0.7372549019607844" d="M 238.5 997 L 241 997.5 L 238.5 998 L 238.5 997 Z "></path><path fill="rgb(0,0,0)" stroke="rgb(0,0,0)" stroke-width="1" opacity="0.7372549019607844" d="M 570.5 997 L 574 997.5 L 570.5 998 L 570.5 997 Z "></path><path fill="rgb(0,0,0)" stroke="rgb(0,0,0)" stroke-width="1" opacity="0.7372549019607844" d="M 603.5 997 L 606 997.5 L 603.5 998 L 603.5 997 Z "></path><path fill="rgb(0,0,0)" stroke="rgb(0,0,0)" stroke-width="1" opacity="0.7372549019607844" d="M 277.5 998 L 281 998.5 L 277.5 999 L 277.5 998 Z "></path><path fill="rgb(0,0,0)" stroke="rgb(0,0,0)" stroke-width="1" opacity="0.7372549019607844" d="M 584.5 998 L 593 998.5 L 584.5 999 L 584.5 998 Z "></path><path fill="rgb(0,0,0)" stroke="rgb(0,0,0)" stroke-width="1" opacity="0.7372549019607844" d="M 250.5 999 L 258 999.5 L 250.5 1000 L 250.5 999 Z "></path><path fill="rgb(0,0,0)" stroke="rgb(0,0,0)" stroke-width="1" opacity="0.7372549019607844" d="M 263.5 999 L 272 999.5 L 263.5 1000 L 263.5 999 Z "></path><path fill="rgb(0,0,0)" stroke="rgb(0,0,0)" stroke-width="1" opacity="1" d="M 603.5 0 Q 606.5 -0.9 605 3.5 L 607 12.5 L 607 30.5 L 606 31.5 L 606 41.5 L 601 68.5 Q 594.7 91.7 585 111.5 Q 564.6 152.6 532.5 182 Q 504.8 206.3 467.5 221 L 437.5 229 Q 432 227.5 430.5 230 L 408.5 230 L 405 229 L 403 209.5 L 404 208.5 L 405 186.5 L 408 171.5 L 415 148.5 L 424 127.5 Q 444.1 87.1 475.5 58 L 508.5 33 L 538.5 17 L 568.5 6 L 585.5 2 L 602.5 1 L 603.5 0 Z "></path><path fill="rgb(0,0,0)" stroke="rgb(0,0,0)" stroke-width="1" opacity="1" d="M 579.5 242 L 605.5 242 L 606.5 243 L 618.5 243 L 619.5 244 L 633.5 245 L 661.5 251 L 679.5 257 Q 729.5 275.5 763 310.5 Q 776.6 323.9 787 340.5 Q 755.5 361.5 731 389.5 Q 703.5 421 689 465.5 L 684 484.5 L 682 501.5 L 681 502.5 L 681 509.5 L 680 510.5 L 680 552.5 L 681 553.5 L 682 569.5 L 687 591.5 Q 693.6 614.9 704 634.5 Q 723.1 668.9 751.5 694 Q 777.7 718.6 813 733 L 809 749.5 L 797 780.5 Q 781.5 817 762 849.5 Q 738.5 888 711 922.5 L 681.5 956 Q 660.1 978.1 629.5 991 L 602.5 998 L 574.5 998 L 573.5 997 L 566.5 997 L 556.5 995 L 536.5 989 L 492.5 970 L 473.5 964 L 452.5 960 L 444.5 960 L 443.5 959 L 408.5 959 L 407.5 960 L 399.5 960 L 398.5 961 L 387.5 962 L 368.5 967 Q 340 976.5 314.5 989 L 296.5 995 L 276.5 999 L 258.5 1000 L 257.5 999 L 246.5 999 L 229.5 995 L 207.5 985 Q 179.2 967.3 158 942.5 Q 123.2 901.3 93 855.5 L 71 817.5 L 45 761.5 L 25 704.5 L 12 653.5 L 12 648.5 L 9 637.5 L 7 619.5 L 5 612.5 L 3 589.5 L 2 588.5 L 0 532.5 L 1 531.5 L 2 500.5 L 3 499.5 L 3 491.5 L 4 490.5 L 6 471.5 L 13 440.5 L 22 412.5 L 40 373.5 L 55 349.5 Q 72.3 324.8 94.5 305 L 127.5 280 L 151.5 267 L 181.5 255 L 204.5 249 L 222.5 247 L 223.5 246 L 231.5 246 L 232.5 245 L 265.5 245 L 266.5 246 L 285.5 248 L 308.5 254 L 390.5 285 L 405.5 288 L 421.5 288 L 435.5 285 L 453.5 279 L 487.5 265 L 524.5 252 L 548.5 246 L 567.5 244 L 568.5 243 L 578.5 243 L 579.5 242 Z "></path></svg>